<?xml version="1.0" standalone="no"?>
<!DOCTYPE svg PUBLIC "-//W3C//DTD SVG 20010904//EN"
 "http://www.w3.org/TR/2001/REC-SVG-20010904/DTD/svg10.dtd">
<svg version="1.0" xmlns="http://www.w3.org/2000/svg"
 width="2650.000000pt" height="2650.000000pt" viewBox="0 0 2650.000000 2650.000000"
 preserveAspectRatio="xMidYMid meet">
<metadata>
Created by potrace 1.14, written by Peter Selinger 2001-2017
</metadata>
<g transform="translate(0.000000,2650.000000) scale(0.100000,-0.100000)"
fill="#000000" stroke="none">
<path d="M13362 26462 c-12 -30 -25 -52 -131 -232 -41 -69 -112 -189 -157
-268 -46 -78 -121 -206 -167 -285 -46 -78 -97 -164 -113 -192 -16 -27 -33 -57
-39 -67 -74 -127 -528 -901 -630 -1073 -46 -77 -92 -156 -103 -175 -11 -19
-49 -84 -84 -145 -36 -60 -98 -166 -138 -235 -40 -69 -92 -158 -116 -197 -24
-40 -44 -77 -44 -83 0 -5 -4 -10 -10 -10 -5 0 -10 -4 -10 -9 0 -6 -42 -81 -94
-168 -51 -87 -163 -277 -248 -423 -167 -284 -175 -298 -228 -387 -19 -32 -40
-69 -48 -83 -13 -26 -23 -42 -107 -182 -27 -46 -52 -87 -54 -93 -2 -5 -13 -26
-26 -45 -19 -30 -114 -192 -165 -281 -18 -32 -157 -268 -170 -289 -5 -8 -71
-121 -146 -250 -75 -129 -145 -247 -155 -262 -10 -15 -19 -30 -19 -32 0 -3
-17 -34 -38 -68 -21 -35 -50 -83 -64 -108 -38 -67 -187 -321 -206 -350 -9 -14
-17 -27 -17 -30 0 -3 -8 -16 -16 -30 -34 -54 -79 -131 -79 -135 0 -3 -20 -36
-45 -75 -25 -39 -45 -72 -45 -74 0 -2 -47 -84 -105 -181 -58 -98 -105 -180
-105 -184 0 -3 -9 -17 -20 -31 -12 -15 -18 -18 -14 -7 6 15 -3 17 -87 17 -141
1 -1261 9 -2159 15 -737 5 -1292 8 -3035 20 -368 3 -1022 7 -1452 10 -431 3
-783 3 -783 0 0 -3 26 -52 59 -108 32 -56 69 -120 81 -142 12 -22 39 -69 60
-105 21 -36 48 -83 60 -105 47 -84 409 -722 429 -755 12 -19 30 -53 42 -75 11
-22 28 -53 38 -70 34 -55 131 -228 131 -232 0 -2 14 -24 30 -48 17 -24 30 -46
30 -49 0 -5 34 -65 261 -464 55 -95 99 -177 99 -182 0 -6 3 -10 8 -10 4 0 13
-15 21 -32 8 -18 27 -52 43 -75 15 -23 28 -44 28 -47 0 -4 193 -347 280 -496
21 -36 65 -114 99 -175 34 -60 66 -117 71 -125 5 -8 40 -69 77 -135 37 -66 72
-128 78 -137 5 -9 20 -34 31 -55 12 -22 97 -171 189 -333 234 -411 360 -633
369 -650 4 -8 19 -36 34 -62 15 -26 83 -145 151 -265 68 -120 133 -234 145
-253 12 -19 26 -44 33 -55 7 -11 16 -29 21 -40 6 -11 42 -77 82 -145 40 -69
94 -163 120 -210 26 -47 57 -101 68 -120 11 -19 33 -57 48 -85 15 -27 44 -78
65 -113 22 -35 39 -66 39 -67 0 -2 52 -95 116 -207 64 -112 132 -231 150 -265
l34 -62 -70 -117 c-38 -65 -70 -119 -70 -120 0 -2 -32 -55 -70 -119 -38 -64
-70 -118 -70 -121 0 -3 -8 -18 -19 -32 -10 -15 -29 -47 -43 -72 -14 -25 -162
-277 -328 -560 -312 -530 -332 -565 -359 -613 -9 -16 -20 -36 -26 -45 -105
-175 -155 -263 -155 -271 0 -6 -4 -11 -8 -11 -4 0 -18 -19 -30 -42 -12 -24
-30 -56 -41 -73 -10 -16 -105 -178 -211 -360 -106 -181 -203 -346 -216 -367
-13 -21 -24 -40 -24 -42 0 -3 -31 -57 -69 -120 -38 -62 -80 -134 -94 -157 -13
-24 -77 -134 -142 -244 -64 -110 -149 -254 -188 -320 -38 -66 -82 -140 -97
-165 -15 -25 -56 -94 -90 -155 -35 -60 -78 -133 -97 -162 -18 -28 -33 -54 -33
-56 0 -3 -55 -99 -123 -213 -68 -115 -135 -229 -149 -254 -25 -44 -155 -266
-493 -840 -92 -157 -175 -298 -185 -315 -38 -67 -81 -141 -90 -155 -24 -36
-160 -272 -160 -275 0 -2 -11 -21 -25 -41 -14 -20 -25 -40 -25 -44 0 -3 102
-7 228 -8 125 -1 562 -4 972 -7 410 -2 1094 -7 1520 -10 426 -3 1095 -7 1485
-10 1399 -10 2408 -16 2855 -19 l455 -2 106 -185 c115 -202 404 -710 439 -774
12 -22 39 -69 60 -105 21 -36 47 -81 58 -100 11 -19 38 -67 61 -107 22 -39 50
-89 62 -110 12 -21 116 -204 232 -408 115 -203 221 -390 235 -414 14 -25 38
-67 53 -93 16 -27 29 -51 29 -54 0 -3 8 -17 19 -32 10 -15 70 -119 133 -232
64 -113 180 -317 258 -455 79 -137 156 -274 171 -303 16 -30 38 -66 49 -82 11
-15 20 -31 20 -34 0 -2 29 -55 65 -117 36 -61 65 -113 65 -114 0 -2 80 -143
170 -300 9 -16 45 -79 79 -140 33 -60 65 -117 71 -125 5 -8 41 -71 80 -140 39
-69 82 -145 96 -170 73 -127 330 -580 350 -615 12 -22 101 -179 198 -349 97
-170 176 -311 176 -313 0 -2 8 -16 19 -31 10 -15 65 -110 122 -212 57 -101
109 -194 116 -205 7 -11 16 -27 20 -35 4 -8 29 -53 56 -100 46 -79 62 -108
114 -200 19 -34 22 -35 82 -38 69 -3 74 0 110 68 17 33 229 397 250 430 6 8
28 47 50 85 21 39 51 87 65 108 14 21 26 40 26 42 0 2 30 55 66 117 37 62 74
127 84 143 9 17 40 68 67 115 28 47 60 101 71 120 11 19 63 109 117 200 54 91
105 179 115 195 33 57 228 391 380 650 84 143 164 280 178 305 14 25 42 72 62
105 20 33 55 92 77 130 23 39 170 290 327 558 157 269 286 493 286 498 0 5 5
9 10 9 6 0 10 4 10 9 0 5 40 76 88 158 48 81 112 190 142 241 30 51 63 108 74
125 10 18 26 46 35 62 9 17 24 41 33 55 9 14 26 44 39 67 13 23 67 115 119
204 52 89 102 174 110 188 15 25 61 104 203 346 39 66 97 165 129 220 32 55
62 107 67 115 5 8 98 166 206 350 108 184 233 398 278 475 l82 140 650 -2
c582 -1 1122 -4 3185 -18 327 -2 978 -7 1445 -10 468 -3 1168 -8 1558 -10 389
-3 707 -2 707 1 0 3 -25 49 -55 102 -31 54 -61 106 -67 117 -6 11 -53 92 -103
180 -50 88 -95 167 -99 175 -4 8 -12 24 -19 35 -14 24 -67 116 -95 165 -10 19
-50 89 -89 155 -38 66 -72 127 -76 135 -4 8 -13 24 -20 35 -7 11 -43 74 -80
140 -37 66 -72 127 -77 135 -32 53 -200 353 -200 357 0 3 -8 17 -18 31 -11 15
-34 54 -52 87 -61 110 -178 319 -200 355 -16 27 -118 206 -328 575 -112 198
-222 392 -245 430 -23 39 -49 84 -57 100 -46 85 -85 153 -102 177 -10 14 -18
28 -18 31 0 3 -177 316 -461 815 -54 94 -248 436 -279 492 -20 36 -178 313
-350 615 -172 303 -323 568 -336 590 -12 22 -66 117 -119 210 -53 94 -111 195
-127 225 -17 30 -35 61 -40 67 -6 7 -8 21 -6 30 3 10 78 141 167 292 88 151
161 278 161 283 0 4 5 8 10 8 6 0 10 4 10 9 0 5 129 229 286 498 158 268 295
502 304 518 26 45 360 615 381 650 10 16 30 50 44 75 34 61 60 105 197 337
176 299 349 594 369 629 34 60 44 78 52 88 7 10 127 215 182 311 13 22 114
195 225 385 112 190 212 361 223 380 10 19 23 40 27 45 4 6 18 28 30 50 46 82
753 1291 769 1315 10 14 43 70 75 125 31 55 61 107 66 115 19 30 133 226 158
270 13 25 31 52 38 61 28 32 15 36 -108 37 -665 4 -2147 14 -2643 17 -341 3
-957 7 -1370 10 -979 6 -2331 15 -2913 19 -484 3 -481 3 -482 44 0 6 -4 12
-10 12 -5 0 -10 4 -10 9 0 5 -61 115 -135 245 -74 131 -135 240 -135 243 0 3
-8 17 -19 31 -10 15 -31 50 -45 77 -15 28 -32 59 -39 70 -31 51 -57 95 -89
155 -20 36 -80 142 -133 235 -54 94 -114 199 -133 235 -19 36 -41 72 -48 81
-8 8 -14 18 -14 21 0 4 -34 65 -75 138 -42 72 -79 139 -82 148 -4 9 -10 19
-13 22 -4 3 -22 32 -40 65 -48 86 -392 693 -456 803 -30 51 -54 95 -54 97 0 3
-72 129 -100 175 -7 12 -195 342 -301 529 -14 25 -66 116 -114 201 -49 85 -99
173 -111 195 -44 80 -374 660 -384 675 -6 8 -18 31 -28 50 -9 19 -20 37 -24
38 -5 2 -8 8 -8 13 0 5 -18 38 -40 74 -22 36 -40 67 -40 69 0 2 -40 73 -88
158 -49 84 -91 160 -95 168 -4 8 -17 31 -28 50 -21 35 -244 426 -291 510 -14
25 -126 223 -250 440 -124 217 -237 416 -251 442 -72 129 -159 278 -166 282
-4 3 -12 -7 -19 -22z m-3979 -6797 c-3 -9 -8 -14 -10 -11 -3 3 -2 9 2 15 9 16
15 13 8 -4z"/>
</g>
</svg>
